<?xml version="1.0" encoding="UTF-8" standalone="no"?>
<svg
   viewBox="0 0 128 128"
   version="1.1"
   id="svg184"
   sodipodi:docname="linkedin.svg"
   inkscape:version="1.2.1 (9c6d41e, 2022-07-14)"
   xmlns:inkscape="http://www.inkscape.org/namespaces/inkscape"
   xmlns:sodipodi="http://sodipodi.sourceforge.net/DTD/sodipodi-0.dtd"
   xmlns="http://www.w3.org/2000/svg"
   xmlns:svg="http://www.w3.org/2000/svg">
  <defs
     id="defs188" />
  <sodipodi:namedview
     id="namedview186"
     pagecolor="#505050"
     bordercolor="#ffffff"
     borderopacity="1"
     inkscape:showpageshadow="0"
     inkscape:pageopacity="0"
     inkscape:pagecheckerboard="1"
     inkscape:deskcolor="#505050"
     showgrid="false"
     inkscape:zoom="6.40625"
     inkscape:cx="67.668293"
     inkscape:cy="64"
     inkscape:window-width="1827"
     inkscape:window-height="970"
     inkscape:window-x="0"
     inkscape:window-y="28"
     inkscape:window-maximized="0"
     inkscape:current-layer="svg184" />
  <path
     d="M116 3H12a8.91 8.91 0 00-9 8.8v104.42a8.91 8.91 0 009 8.78h104a8.93 8.93 0 009-8.81V11.77A8.93 8.93 0 00116 3zM39.17 107H21.06V48.73h18.11zm-9-66.21a10.5 10.5 0 1110.49-10.5 10.5 10.5 0 01-10.54 10.48zM107 107H88.89V78.65c0-6.75-.12-15.44-9.41-15.44s-10.87 7.36-10.87 15V107H50.53V48.73h17.36v8h.24c2.42-4.58 8.32-9.41 17.13-9.41C103.6 47.28 107 59.35 107 75z"
     id="path182"
     style="fill:#ffffff;fill-opacity:1" />
</svg>
